# xmcd CD database file
#
# Track frame offsets:
#	150
#	13488
#	28099
#	49128
#	65210
#	81228
#	97698
#	113698
#	127984
#	142043
#	156554
#	174635
#	187642
#	205772
#	222987
#	240500
#	254717
#	269777
#	282617
#	295618
#
# Disc length: 4134 seconds
#
# Revision: 0
# Processed by: cddbd v1.5.2PL0 Copyright (c) Steve Scherf et al.
# Submitted via: CDex 1.70beta2
#
DISCID=38102414
DTITLE=Jazz in Bossa - Smooth Jazz (POP)
DYEAR=2010
DGENRE=Jazz
TTITLE0=Cris_Delanno_-_Raise_me_up.mp3
TTITLE1=Rachelle_-_All_by_myself.mp3
TTITLE2=Wanda_-_Love_me_tender.mp3
TTITLE3=Monique_Kessous_-_Hey_jude.mp3
TTITLE4=Pery_Ribeiro_-_Moon_river.mp3
TTITLE5=Maurcio_Dettone_-_Careless_whisper.mp3
TTITLE6=Saloa_-_Don't_stop_me_now.mp3
TTITLE7=Taryn_-_I_say_a_little_pray_for_you.mp3
TTITLE8=Pedro_-_Pretty_woman.mp3
TTITLE9=Marcelo_Rezende_-_Pale_blue_eyes.mp3
TTITLE10=Tata_-_You've_got_a_friend.mp3
TTITLE11=Marcelo_Rezende_-_There_she_goes_again.mp3
TTITLE12=Rachelle_-_Say_you_say_me.mp3
TTITLE13=Romulo_Gomes_-_New_moon_on_monday.mp3
TTITLE14=Cecilia_Dale_-_Can't_take_my_eyes_off_of_you.mp3
TTITLE15=Marcelo_Rezende_-_Hard_to_say_I'm_sorry.mp3
TTITLE16=Wanda_-_Anyone_at_all.mp3
TTITLE17=Barbara_Mendes_-_Shout_to_the_top.mp3
TTITLE18=Mauricio_Dettone_-_I_was_born_to_love.mp3
TTITLE19=Pery_Ribeiro_-_We_are_the_champions.mp3
EXTD=YEAR: 2010
EXTT0=
EXTT1=
EXTT2=
EXTT3=
EXTT4=
EXTT5=
EXTT6=
EXTT7=
EXTT8=
EXTT9=
EXTT10=
EXTT11=
EXTT12=
EXTT13=
EXTT14=
EXTT15=
EXTT16=
EXTT17=
EXTT18=
EXTT19=
PLAYORDER=
